<?xml version="1.0" encoding="UTF-8"?>
<svg id="Calque_1" data-name="Calque 1" xmlns="http://www.w3.org/2000/svg" viewBox="0 0 841.89 595.28">
  <defs>
    <style>
      .cls-1 {
        fill: #fff;
        stroke-width: 0px;
      }
    </style>
  </defs>
  <path class="cls-1" d="m621.29,375.98c-1.24,3.5-2.76,7.29-4.37,10.63-11.8,25.02-32.84,44.23-57.62,56.05-34.25,16.25-70.2,16.76-106.03,5.88-15.03-4.61-29.37-10.61-43.21-18-1.44-.78-1.97-2.57-1.2-4.01.47-.87,1.32-1.4,2.23-1.53,6.9-.89,13.71-1.43,20.43-1.97,11.55-.93,22.77-1.74,34.14-3.21,7.49-.96,15.17-2.23,22.5-3.98,3.52-.85,7.01-1.76,10.44-2.86,1.01-.32,3-.99,4.02-1.3,1.42-.52,3.43-1.31,4.85-1.81,2.1-.84,4.53-1.87,6.58-2.83,16.34-7.55,31.02-18.58,41.9-32.93,5.07-6.72,9.25-14.13,12.15-22.03,4.55-12.49,3.47-27.79-5.63-37.96l-.53-.58-.27-.29-.31-.3-1.24-1.23c-.31-.34-.91-.82-1.25-1.14-.42-.36-.82-.77-1.27-1.1-.81-.67-1.84-1.48-2.7-2.06-.77-.58-2.05-1.38-2.88-1.91-18.44-10.85-43.41-10.64-65.04-9.08-5.46.42-11.12.97-16.6,1.6-.76.08-1.6.14-2.36.17-10.75.76-21.89.54-30.69-7.53-6.1-5.43-8.78-13.96-8.78-21.78-.07-5.77,1.07-11.38,2.23-16.74.4-1.71,1.06-4.06,1.5-5.76,7.62-27.23,18.48-53.33,28.12-79.64,11.7-31.03,23.56-62.17,35.76-93.01.57-1.45,2.21-2.17,3.67-1.59,1.3.51,2.01,1.89,1.72,3.21-8.25,38.94-17.16,77.88-26.03,116.67-4.9,21.32-10.74,43.93-13.53,65.48-.12,1.65-.31,3.38-.38,4.82,1.2-.19,2.49-.4,3.51-.59,12.42-2.84,25.18-5.18,38-6.48,20.31-2.09,41.29-1.21,60.73,5.61,4.49,1.58,9.04,3.54,13.29,5.7,1.31.73,3.02,1.58,4.3,2.35l2.82,1.69c1.39.81,2.79,1.83,4.13,2.71,1.07.67,2.92,2.14,3.94,2.86.82.58,1.86,1.46,2.64,2.07,2.71,2.22,5.31,4.65,7.73,7.18,22.73,23.78,29.67,59.73,18.56,90.55Z"/>
  <g>
    <path class="cls-1" d="m209.3,315.61l7.96-56.65h20.13c3.58,0,6.2.85,7.86,2.54,1.66,1.69,2.27,4.04,1.82,7.04l-.86,6.42c-.26,1.66-.72,3.18-1.39,4.55-.67,1.37-1.55,2.54-2.64,3.5-.9.7-1.9,1.25-3.02,1.63-1.12.38-2.16.61-3.12.67l-.1.1c1.09,0,2.12.13,3.12.38.99.26,1.9.77,2.73,1.53.89.83,1.56,1.96,2.01,3.4.45,1.44.51,3.21.19,5.32l-.96,7.76c-.45,3.07-1.34,5.46-2.68,7.19-1.34,1.72-3.02,2.92-5.03,3.59-2.01.67-4.36,1.01-7.04,1.01h-18.98Zm11.98-5.85h5.18c.96,0,1.77-.18,2.44-.53.67-.35,1.26-1.01,1.77-1.96.51-.96.89-2.36,1.15-4.22l.96-6.71c.38-2.55.18-4.23-.62-5.03-.8-.8-1.9-1.2-3.31-1.2h-4.79l-2.78,19.65Zm3.74-26.65h4.6c1.47,0,2.7-.51,3.69-1.53.99-1.02,1.64-2.81,1.96-5.37l.86-5.66c.32-1.98.16-3.4-.48-4.26-.64-.86-1.53-1.29-2.68-1.29h-5.46l-2.49,18.12Z"/>
    <path class="cls-1" d="m261.92,316.76c-3.26,0-5.96-.4-8.1-1.2-2.14-.8-3.63-2.32-4.46-4.55-.83-2.24-.96-5.5-.38-9.78l3.16-21.76c.64-4.6,2.3-7.75,4.98-9.44,2.68-1.69,6.2-2.54,10.54-2.54,5.75,0,9.79.91,12.12,2.73,2.33,1.82,3.12,5.16,2.35,10.02-.51,2.81-1.6,5.11-3.26,6.9-1.66,1.79-3.63,3.18-5.9,4.17-2.27.99-4.5,1.68-6.71,2.06-2.21.38-4.07.61-5.61.67l-1.34,10.26c-.32,2.3-.26,3.92.19,4.84.45.93,1.5,1.39,3.16,1.39,1.53,0,2.65-.4,3.35-1.2.7-.8,1.21-2.38,1.53-4.75l.96-6.61h10.83l-.67,4.98c-.51,3.77-1.39,6.65-2.64,8.63-1.25,1.98-3,3.34-5.27,4.07-2.27.73-5.22,1.1-8.87,1.1Zm-.29-28.28c.7-.06,1.53-.19,2.49-.38.96-.19,1.92-.58,2.88-1.15.96-.57,1.82-1.39,2.59-2.44.77-1.05,1.31-2.48,1.63-4.27.38-1.85.43-3.5.14-4.94-.29-1.44-1.36-2.16-3.21-2.16-1.66,0-2.91.48-3.74,1.44-.83.96-1.44,2.94-1.82,5.94l-.96,7.96Zm2.11-25.4l6.13-9.58h10.54l-9.87,9.58h-6.81Z"/>
    <path class="cls-1" d="m282.62,315.61l6.61-47.45h9.3l.1,5.75c.96-2.04,2.35-3.63,4.17-4.75,1.82-1.12,3.75-1.68,5.8-1.68,2.3,0,4.12.3,5.46.91,1.34.61,2.3,1.45,2.88,2.54.58,1.09.91,2.4,1.01,3.93.1,1.53-.02,3.26-.34,5.18l-4.89,35.56h-10.93l4.89-34.89c.06-.77.11-1.47.14-2.11.03-.64-.03-1.21-.19-1.73-.16-.51-.5-.91-1.01-1.2-.51-.29-1.28-.43-2.3-.43-.77,0-1.45.13-2.06.38-.61.26-1.1.58-1.49.96-.38.38-.67.74-.86,1.05l-5.37,37.96h-10.93Z"/>
    <path class="cls-1" d="m319.14,315.61l6.71-47.45h10.93l-6.71,47.45h-10.93Zm13.71-52.24c-1.53,0-2.84-.53-3.93-1.58-1.09-1.05-1.66-2.32-1.73-3.79,0-1.53.58-2.84,1.73-3.93,1.15-1.09,2.49-1.63,4.03-1.63s2.94.54,4.03,1.63c1.09,1.09,1.63,2.4,1.63,3.93.06,1.47-.48,2.73-1.63,3.79-1.15,1.05-2.53,1.58-4.12,1.58Z"/>
    <path class="cls-1" d="m337.35,315.61l6.61-47.45h9.3l.1,5.75c.96-2.04,2.35-3.63,4.17-4.75,1.82-1.12,3.75-1.68,5.8-1.68,2.3,0,4.12.3,5.46.91,1.34.61,2.3,1.45,2.88,2.54.58,1.09.91,2.4,1.01,3.93.1,1.53-.02,3.26-.34,5.18l-4.89,35.56h-10.93l4.89-34.89c.06-.77.11-1.47.14-2.11.03-.64-.03-1.21-.19-1.73-.16-.51-.5-.91-1.01-1.2-.51-.29-1.28-.43-2.3-.43-.77,0-1.45.13-2.06.38-.61.26-1.1.58-1.49.96-.38.38-.67.74-.86,1.05l-5.37,37.96h-10.93Z"/>
  </g>
  <g>
    <path class="cls-1" d="m195.4,385.7l18.12-56.65h16.01l1.92,56.65h-12.46l-.19-10.45h-8.24l-3.16,10.45h-11.98Zm16.01-16.01h7.96l.48-30.77-8.43,30.77Z"/>
    <path class="cls-1" d="m246.88,386.37c-2.3,0-4.12-.3-5.46-.91-1.34-.61-2.32-1.45-2.92-2.54-.61-1.09-.93-2.4-.96-3.93-.03-1.53.05-3.26.24-5.18l4.98-35.56h10.93l-4.89,34.89c-.06.77-.11,1.49-.14,2.16-.03.67.05,1.26.24,1.77.19.51.54.91,1.05,1.2.51.29,1.25.43,2.2.43.83,0,1.53-.14,2.11-.43.58-.29,1.05-.62,1.44-1.01.38-.38.67-.73.86-1.05l5.27-37.96h10.93l-6.61,47.45h-9.3v-5.75c-.9,2.05-2.27,3.63-4.12,4.74-1.85,1.12-3.8,1.68-5.85,1.68Z"/>
    <path class="cls-1" d="m287.42,385.99c-1.47,0-2.91-.13-4.31-.38-1.41-.25-2.67-.75-3.79-1.49-1.12-.73-1.92-1.79-2.4-3.16-.48-1.37-.56-3.21-.24-5.51l4.31-30.77h-4.41l.86-5.56,5.37-.86,2.88-8.72h8.34l-1.15,8.72h9.01l-.86,6.42h-9.11l-4.03,28.85c-.19,1.34-.1,2.54.29,3.59.38,1.05,1.47,1.58,3.26,1.58.83,0,1.79-.05,2.88-.14,1.09-.1,1.72-.14,1.92-.14l-.86,6.61c-.19,0-.67.08-1.44.24-.77.16-1.74.32-2.92.48-1.18.16-2.38.24-3.59.24Z"/>
    <path class="cls-1" d="m314.07,386.47c-2.62,0-4.84-.26-6.66-.77s-3.26-1.34-4.31-2.49c-1.05-1.15-1.72-2.73-2.01-4.75-.29-2.01-.24-4.58.14-7.72l2.88-20.13c.45-3,1.31-5.48,2.59-7.43,1.28-1.95,3.08-3.39,5.42-4.31,2.33-.93,5.29-1.39,8.87-1.39,2.68,0,4.94.27,6.76.82,1.82.54,3.26,1.36,4.31,2.44,1.05,1.09,1.74,2.44,2.06,4.07.32,1.63.29,3.56-.1,5.8l-2.78,20.13c-.58,4.09-1.55,7.29-2.92,9.58-1.38,2.3-3.23,3.9-5.56,4.79-2.33.89-5.22,1.34-8.67,1.34Zm.96-6.52c1.15,0,2.04-.24,2.68-.72.64-.48,1.12-1.13,1.44-1.96.32-.83.54-1.79.67-2.88l3.45-24.92c.19-1.09.24-2.04.14-2.88-.1-.83-.4-1.47-.91-1.92-.51-.45-1.34-.67-2.49-.67s-2.05.22-2.68.67c-.64.45-1.12,1.09-1.44,1.92-.32.83-.54,1.79-.67,2.88l-3.55,24.92c-.13,1.09-.16,2.05-.1,2.88.06.83.35,1.49.86,1.96.51.48,1.37.72,2.59.72Z"/>
    <path class="cls-1" d="m338.22,362.69l.96-7.38h19.94l-.96,7.38h-19.94Z"/>
    <path class="cls-1" d="m376.46,386.85c-3.26,0-5.96-.4-8.1-1.2-2.14-.8-3.63-2.32-4.46-4.55-.83-2.24-.96-5.5-.38-9.78l3.16-21.76c.64-4.6,2.3-7.75,4.98-9.44,2.68-1.69,6.2-2.54,10.54-2.54,5.75,0,9.79.91,12.12,2.73,2.33,1.82,3.12,5.16,2.35,10.02-.51,2.81-1.6,5.11-3.26,6.9-1.66,1.79-3.63,3.18-5.9,4.17-2.27.99-4.5,1.68-6.71,2.06-2.21.38-4.07.61-5.61.67l-1.34,10.26c-.32,2.3-.26,3.92.19,4.84.45.93,1.5,1.39,3.16,1.39,1.53,0,2.65-.4,3.35-1.2.7-.8,1.21-2.38,1.53-4.75l.96-6.61h10.83l-.67,4.98c-.51,3.77-1.39,6.65-2.64,8.63-1.25,1.98-3,3.34-5.27,4.07-2.27.73-5.22,1.1-8.87,1.1Zm-.29-28.28c.7-.06,1.53-.19,2.49-.38.96-.19,1.92-.58,2.88-1.15.96-.57,1.82-1.39,2.59-2.44.77-1.05,1.31-2.48,1.63-4.27.38-1.85.43-3.5.14-4.94-.29-1.44-1.36-2.16-3.21-2.16-1.66,0-2.91.48-3.74,1.44-.83.96-1.44,2.94-1.82,5.94l-.96,7.96Zm2.11-25.4l6.13-9.58h10.54l-9.87,9.58h-6.81Z"/>
    <path class="cls-1" d="m411.26,386.75c-2.43,0-4.55-.19-6.37-.58-1.82-.38-3.31-1.1-4.46-2.16-1.15-1.05-1.9-2.62-2.25-4.7-.35-2.08-.27-4.81.24-8.2l3.07-21.57c.64-4.6,2.32-7.78,5.03-9.54,2.72-1.76,6.6-2.64,11.65-2.64s8.61.88,10.88,2.64c2.27,1.76,3.05,4.94,2.35,9.54l-.96,7h-10.93l1.15-8.24c.25-1.85.14-3.16-.34-3.93-.48-.77-1.49-1.15-3.02-1.15s-2.56.38-3.26,1.15c-.7.77-1.18,2.08-1.44,3.93l-3.93,27.32c-.26,1.98-.14,3.35.33,4.12.48.77,1.49,1.15,3.02,1.15s2.64-.38,3.31-1.15c.67-.77,1.13-2.14,1.39-4.12l1.34-9.11h10.93l-.58,4.6c-.64,4.47-1.69,7.83-3.16,10.06-1.47,2.24-3.37,3.72-5.7,4.46-2.33.73-5.1,1.1-8.29,1.1Z"/>
    <path class="cls-1" d="m446.34,386.47c-2.62,0-4.84-.26-6.66-.77s-3.26-1.34-4.31-2.49c-1.05-1.15-1.72-2.73-2.01-4.75-.29-2.01-.24-4.58.14-7.72l2.88-20.13c.45-3,1.31-5.48,2.59-7.43,1.28-1.95,3.08-3.39,5.42-4.31,2.33-.93,5.29-1.39,8.87-1.39,2.68,0,4.94.27,6.76.82,1.82.54,3.26,1.36,4.31,2.44,1.05,1.09,1.74,2.44,2.06,4.07.32,1.63.29,3.56-.1,5.8l-2.78,20.13c-.58,4.09-1.55,7.29-2.92,9.58-1.38,2.3-3.23,3.9-5.56,4.79-2.33.89-5.22,1.34-8.67,1.34Zm.96-6.52c1.15,0,2.04-.24,2.68-.72.64-.48,1.12-1.13,1.44-1.96.32-.83.54-1.79.67-2.88l3.45-24.92c.19-1.09.24-2.04.14-2.88-.1-.83-.4-1.47-.91-1.92-.51-.45-1.34-.67-2.49-.67s-2.05.22-2.68.67c-.64.45-1.12,1.09-1.44,1.92-.32.83-.54,1.79-.67,2.88l-3.55,24.92c-.13,1.09-.16,2.05-.1,2.88.06.83.35,1.49.86,1.96.51.48,1.37.72,2.59.72Z"/>
    <path class="cls-1" d="m467.81,385.7l8.53-60.58h10.83l-8.43,60.58h-10.93Z"/>
    <path class="cls-1" d="m499.73,386.85c-3.26,0-5.96-.4-8.1-1.2-2.14-.8-3.63-2.32-4.46-4.55-.83-2.24-.96-5.5-.38-9.78l3.16-21.76c.64-4.6,2.3-7.75,4.98-9.44,2.68-1.69,6.2-2.54,10.54-2.54,5.75,0,9.79.91,12.12,2.73,2.33,1.82,3.12,5.16,2.35,10.02-.51,2.81-1.6,5.11-3.26,6.9-1.66,1.79-3.63,3.18-5.9,4.17-2.27.99-4.5,1.68-6.71,2.06-2.21.38-4.07.61-5.61.67l-1.34,10.26c-.32,2.3-.26,3.92.19,4.84.45.93,1.5,1.39,3.16,1.39,1.53,0,2.65-.4,3.35-1.2.7-.8,1.21-2.38,1.53-4.75l.96-6.61h10.83l-.67,4.98c-.51,3.77-1.39,6.65-2.64,8.63-1.25,1.98-3,3.34-5.27,4.07-2.27.73-5.22,1.1-8.87,1.1Zm-.29-28.28c.7-.06,1.53-.19,2.49-.38.96-.19,1.92-.58,2.88-1.15.96-.57,1.82-1.39,2.59-2.44.77-1.05,1.31-2.48,1.63-4.27.38-1.85.43-3.5.14-4.94-.29-1.44-1.36-2.16-3.21-2.16-1.66,0-2.91.48-3.74,1.44-.83.96-1.44,2.94-1.82,5.94l-.96,7.96Z"/>
  </g>
</svg>