<?xml version="1.0" encoding="UTF-8"?>
<svg id="Calque_1" data-name="Calque 1" xmlns="http://www.w3.org/2000/svg" viewBox="0 0 228.18 390.99">
  <defs>
    <style>
      .cls-1 {
        fill: #fff;
        stroke-width: 0px;
      }
    </style>
  </defs>
  <path class="cls-1" d="m217.88,307.54c-1.24,3.5-2.76,7.29-4.37,10.63-11.8,25.02-32.84,44.23-57.62,56.05-34.25,16.25-70.2,16.76-106.03,5.88-15.03-4.61-29.37-10.61-43.21-18-1.44-.78-1.97-2.57-1.2-4.01.47-.87,1.32-1.4,2.23-1.53,6.9-.89,13.71-1.43,20.43-1.97,11.55-.93,22.77-1.74,34.14-3.21,7.49-.96,15.17-2.23,22.5-3.98,3.52-.85,7.01-1.76,10.44-2.86,1.01-.32,3-.99,4.02-1.3,1.42-.52,3.43-1.31,4.85-1.81,2.1-.84,4.53-1.87,6.58-2.83,16.34-7.55,31.02-18.58,41.9-32.93,5.07-6.72,9.25-14.13,12.15-22.03,4.55-12.49,3.47-27.79-5.63-37.96l-.53-.58-.27-.29-.31-.3-1.24-1.23c-.31-.34-.91-.82-1.25-1.14-.42-.36-.82-.77-1.27-1.1-.81-.67-1.84-1.48-2.7-2.06-.77-.58-2.05-1.38-2.88-1.91-18.44-10.85-43.41-10.64-65.04-9.08-5.46.42-11.12.97-16.6,1.6-.76.08-1.6.14-2.36.17-10.75.76-21.89.54-30.69-7.53-6.1-5.43-8.78-13.96-8.78-21.78-.07-5.77,1.07-11.38,2.23-16.74.4-1.71,1.06-4.06,1.5-5.76,7.62-27.23,18.48-53.33,28.12-79.64,11.7-31.03,23.56-62.17,35.76-93.01.57-1.45,2.21-2.17,3.67-1.59,1.3.51,2.01,1.89,1.72,3.21-8.25,38.94-17.16,77.88-26.03,116.67-4.9,21.32-10.74,43.93-13.53,65.48-.12,1.65-.31,3.38-.38,4.82,1.2-.19,2.49-.4,3.51-.59,12.42-2.84,25.18-5.18,38-6.48,20.31-2.09,41.29-1.21,60.73,5.61,4.49,1.58,9.04,3.54,13.29,5.7,1.31.73,3.02,1.58,4.3,2.35l2.82,1.69c1.39.81,2.79,1.83,4.13,2.71,1.07.67,2.92,2.14,3.94,2.86.82.58,1.86,1.46,2.64,2.07,2.71,2.22,5.31,4.65,7.73,7.18,22.73,23.78,29.67,59.73,18.56,90.55Z"/>
</svg>